<svg width="85" height="336" viewBox="0 0 85 336" fill="none" xmlns="http://www.w3.org/2000/svg">
<g clip-path="url(#clip0_372_1384)">
<path d="M42 23C36.6957 23 31.6086 25.1071 27.8579 28.8579C24.1071 32.6086 22 37.6957 22 43C22 48.3043 24.1071 53.3914 27.8579 57.1421C31.6086 60.8929 36.6957 63 42 63C47.3043 63 52.3914 60.8929 56.1421 57.1421C59.8929 53.3914 62 48.3043 62 43C62 37.6957 59.8929 32.6086 56.1421 28.8579C52.3914 25.1071 47.3043 23 42 23Z" fill="#F8F8F7"/>
<path d="M53.937 37.041C53.983 36.89 54.005 36.75 53.999 36.625C53.984 36.263 53.735 36 53.149 36H50.531C49.87 36 49.565 36.4 49.387 36.801C49.387 36.801 47.755 40.16 45.874 42.375C45.264 43.016 44.954 43 44.624 43C44.447 43 44 42.786 44 42.199V37.014C44 36.32 43.827 36 43.268 36H38.619C38.212 36 38 36.32 38 36.641C38 37.308 38.898 37.468 39 39.337V42.96C39 43.84 38.847 44 38.517 44C37.627 44 35.875 41 34.702 37.068C34.448 36.294 34.194 36 33.533 36H30.89C30.127 36 30 36.374 30 36.774C30 37.495 30.6 41.393 33.875 45.875C36.25 49.125 39.379 51 42.149 51C43.827 51 43.999 50.573 43.999 49.906V46.934C44 46.133 44.183 46 44.717 46C45.098 46 45.875 46.25 47.375 48C49.105 50.018 49.419 51 50.411 51H53.029C53.637 51 53.986 50.745 54 50.25C54.003 50.124 53.985 49.983 53.944 49.826C53.75 49.25 52.86 47.842 51.75 46.5C51.135 45.757 50.528 45.021 50.249 44.621C50.062 44.36 49.991 44.176 50 44C50.009 43.815 50.105 43.639 50.249 43.393C50.223 43.393 53.607 38.642 53.937 37.041Z" fill="#525A45"/>
</g>
<g clip-path="url(#clip1_372_1384)">
<path fill-rule="evenodd" clip-rule="evenodd" d="M28.904 116H55.095C57.804 116 60 118.196 60 120.904V147.095C60 149.804 57.804 152 55.096 152H28.904C26.196 152 24 149.804 24 147.096V120.904C24 118.196 26.196 116 28.904 116Z" fill="white"/>
<path fill-rule="evenodd" clip-rule="evenodd" d="M47.208 130.607C48.784 131.733 50.715 132.395 52.8 132.395V128.384C52.405 128.384 52.012 128.343 51.626 128.261V131.418C49.541 131.418 47.611 130.755 46.034 129.63V137.814C46.034 141.908 42.713 145.227 38.617 145.227C37.089 145.227 35.668 144.765 34.488 143.973C35.835 145.349 37.713 146.203 39.791 146.203C43.887 146.203 47.208 142.884 47.208 138.79V130.607ZM48.657 126.561C47.852 125.682 47.323 124.545 47.208 123.288V122.772H46.095C46.375 124.369 47.331 125.734 48.657 126.561ZM37.079 140.832C36.629 140.242 36.386 139.521 36.387 138.779C36.387 136.906 37.906 135.388 39.78 135.388C40.129 135.388 40.476 135.441 40.809 135.547V131.447C40.42 131.394 40.028 131.371 39.635 131.379V134.57C39.302 134.464 38.955 134.411 38.605 134.411C36.731 134.411 35.212 135.929 35.212 137.802C35.213 139.127 35.972 140.274 37.079 140.832Z" fill="#2A3922"/>
<path fill-rule="evenodd" clip-rule="evenodd" d="M46.034 129.63C47.61 130.756 49.541 131.418 51.626 131.418V128.261C50.462 128.013 49.432 127.405 48.657 126.56C47.331 125.733 46.376 124.369 46.096 122.772H43.173V138.79C43.166 140.657 41.65 142.169 39.78 142.169C38.678 142.169 37.699 141.644 37.079 140.831C35.972 140.273 35.213 139.126 35.213 137.802C35.213 135.929 36.732 134.411 38.606 134.411C38.965 134.411 39.311 134.467 39.636 134.57V131.38C35.612 131.463 32.376 134.749 32.376 138.791C32.376 140.809 33.182 142.638 34.49 143.974C35.67 144.766 37.091 145.228 38.619 145.228C42.715 145.228 46.036 141.909 46.036 137.815L46.034 129.63Z" fill="#525A45"/>
<path fill-rule="evenodd" clip-rule="evenodd" d="M51.6259 128.262V127.408C50.5759 127.41 49.548 127.116 48.657 126.56C49.445 127.423 50.4829 128.018 51.6259 128.262ZM46.095 122.772C46.068 122.619 46.048 122.466 46.034 122.311V121.795H41.998V137.814C41.992 139.681 40.475 141.193 38.605 141.193C38.056 141.193 37.538 141.063 37.079 140.831C37.699 141.644 38.678 142.169 39.78 142.169C41.65 142.169 43.166 140.657 43.173 138.79V122.772H46.095ZM39.635 131.38V130.471C39.298 130.425 38.958 130.402 38.617 130.402C34.52 130.402 31.2 133.721 31.2 137.815C31.2 140.382 32.505 142.644 34.488 143.974C33.18 142.638 32.374 140.809 32.374 138.791C32.374 134.749 35.611 131.463 39.635 131.38Z" fill="#6F7863"/>
</g>
<g clip-path="url(#clip2_372_1384)">
<path d="M49.6667 207.389H34.3334C29.35 207.389 25.3889 211.35 25.3889 216.333V231.666C25.3889 236.65 29.35 240.611 34.3334 240.611H49.6667C54.65 240.611 58.6111 236.65 58.6111 231.666V216.333C58.6111 211.35 54.65 207.389 49.6667 207.389Z" stroke="#F8F8F7" stroke-width="2" stroke-miterlimit="10" stroke-linecap="round" stroke-linejoin="round"/>
<path d="M50.9445 215.055C51.6502 215.055 52.2223 214.483 52.2223 213.778C52.2223 213.072 51.6502 212.5 50.9445 212.5C50.2388 212.5 49.6667 213.072 49.6667 213.778C49.6667 214.483 50.2388 215.055 50.9445 215.055Z" fill="#F8F8F7"/>
<path d="M41.9999 231.666C46.2341 231.666 49.6666 228.234 49.6666 224C49.6666 219.765 46.2341 216.333 41.9999 216.333C37.7657 216.333 34.3333 219.765 34.3333 224C34.3333 228.234 37.7657 231.666 41.9999 231.666Z" stroke="#F8F8F7" stroke-width="2" stroke-miterlimit="10" stroke-linecap="round" stroke-linejoin="round"/>
</g>
<g clip-path="url(#clip3_372_1384)">
<path d="M42 296C36.6957 296 31.6086 298.107 27.8579 301.858C24.1071 305.609 22 310.696 22 316C22 321.304 24.1071 326.391 27.8579 330.142C31.6086 333.893 36.6957 336 42 336C47.3043 336 52.3914 333.893 56.1421 330.142C59.8929 326.391 62 321.304 62 316C62 310.696 59.8929 305.609 56.1421 301.858C52.3914 298.107 47.3043 296 42 296Z" fill="#F8F8F7"/>
<path d="M51.95 307L48.204 326.126C48.204 326.126 48.043 327 46.959 327C46.383 327 46.086 326.726 46.086 326.726L37.972 319.993L34.002 317.992L28.907 316.637C28.907 316.637 28 316.375 28 315.625C28 315 28.933 314.702 28.933 314.702L50.249 306.234C50.249 306.234 50.9 305.999 51.375 306C51.667 306 52 306.125 52 306.5C52 306.75 51.95 307 51.95 307Z" fill="#525A45"/>
<path d="M41.0001 322.505L37.5741 325.879C37.5741 325.879 37.4251 325.994 37.2261 325.999C37.1571 326.001 37.0831 325.99 37.0071 325.956L37.9711 319.991L41.0001 322.505Z" fill="#2A3922"/>
<path d="M47.897 310.196C47.728 309.976 47.416 309.936 47.196 310.103L34 318C34 318 36.106 323.892 36.427 324.912C36.749 325.933 37.007 325.957 37.007 325.957L37.971 319.992L47.803 310.896C48.023 310.729 48.064 310.416 47.897 310.196Z" fill="#6F7863"/>
</g>
<defs>
<clipPath id="clip0_372_1384">
<rect width="40" height="40" fill="white" transform="translate(22 23)"/>
</clipPath>
<clipPath id="clip1_372_1384">
<rect width="36" height="36" fill="white" transform="translate(24 116)"/>
</clipPath>
<clipPath id="clip2_372_1384">
<rect width="36" height="36" fill="white" transform="translate(24 206)"/>
</clipPath>
<clipPath id="clip3_372_1384">
<rect width="40" height="40" fill="white" transform="translate(22 296)"/>
</clipPath>
</defs>
</svg>
